<svg width="78" height="78" viewBox="0 0 78 78" fill="none" xmlns="http://www.w3.org/2000/svg">
<path d="M77 39C77 59.9868 59.9868 77 39 77C18.0132 77 1 59.9868 1 39C1 18.0132 18.0132 1 39 1C59.9868 1 77 18.0132 77 39Z" fill="#7044CC"/>
<path fill-rule="evenodd" clip-rule="evenodd" d="M39 55.1871C47.939 55.1871 55.1875 47.9404 55.1875 38.9996C55.1875 30.0606 47.939 22.8121 39 22.8121C30.061 22.8121 22.8125 30.0606 22.8125 38.9996C22.8125 47.9404 30.061 55.1871 39 55.1871Z" fill="#7044CC"/>
<path fill-rule="evenodd" clip-rule="evenodd" d="M36.476 45.0742L42.5765 39L36.476 32.9257" fill="#7044CC"/>
<path d="M36.476 45.0742L42.5765 39L36.476 32.9257M77 39C77 59.9868 59.9868 77 39 77C18.0132 77 1 59.9868 1 39C1 18.0132 18.0132 1 39 1C59.9868 1 77 18.0132 77 39ZM39 55.1871C47.939 55.1871 55.1875 47.9404 55.1875 38.9996C55.1875 30.0606 47.939 22.8121 39 22.8121C30.061 22.8121 22.8125 30.0606 22.8125 38.9996C22.8125 47.9404 30.061 55.1871 39 55.1871Z" stroke="white" stroke-width="1.5" stroke-linecap="round" stroke-linejoin="round"/>
</svg>
