<svg width="80" height="80" viewBox="0 0 80 80" fill="none" xmlns="http://www.w3.org/2000/svg">
<path d="M0 0H80V80H0V0Z" fill="#7044CC"/>
<path d="M51.3772 34.4261C51.5289 33.9223 51.3772 33.5529 50.6601 33.5529H48.2843C47.6798 33.5529 47.4036 33.8725 47.2519 34.2235C47.2519 34.2235 46.044 37.1691 44.3323 39.079C43.7798 39.6347 43.5274 39.8102 43.2262 39.8102C43.0757 39.8102 42.8568 39.6347 42.8568 39.131V34.4261C42.8568 33.8216 42.6824 33.5529 42.1787 33.5529H38.4455C38.0685 33.5529 37.841 33.8324 37.841 34.0989C37.841 34.6709 38.6968 34.8031 38.7846 36.4151V39.9121C38.7846 40.678 38.647 40.8177 38.3437 40.8177C37.5387 40.8177 35.5801 37.8613 34.4177 34.477C34.1912 33.8194 33.9627 33.554 33.356 33.554H30.9813C30.3021 33.554 30.1667 33.8736 30.1667 34.2246C30.1667 34.8551 30.9716 37.9751 33.9161 42.1015C35.8791 44.9192 38.6427 46.4467 41.1603 46.4467C42.6694 46.4467 42.8557 46.1077 42.8557 45.5227V43.3928C42.8557 42.7147 42.9998 42.5782 43.4776 42.5782C43.8286 42.5782 44.4331 42.7558 45.8425 44.1132C47.4523 45.7231 47.7188 46.4457 48.6234 46.4457H50.9981C51.6762 46.4457 52.0153 46.1066 51.8203 45.4371C51.6069 44.7708 50.8377 43.8012 49.8172 42.654C49.2626 41.9997 48.4338 41.2955 48.1814 40.9434C47.8293 40.4895 47.9312 40.2891 48.1814 39.8861C48.1814 39.8861 51.0761 35.8117 51.3772 34.4261Z" fill="white"/>
</svg>
